
<svg width="39" height="33" viewBox="0 0 39 33" fill="none" xmlns="http://www.w3.org/2000/svg">
<path d="M9 8.5C9 8.22386 9.22386 8 9.5 8C9.77614 8 10 8.22386 10 8.5V25.5C10 25.7761 9.77614 26 9.5 26C9.22386 26 9 25.7761 9 25.5V8.5Z" fill="black" fill-opacity="0.7"/>
<path d="M13.9999 8.5C13.9999 8.22386 14.2237 8 14.4999 8C14.776 8 14.9999 8.22386 14.9999 8.5V25.5C14.9999 25.7761 14.776 26 14.4999 26C14.2237 26 13.9999 25.7761 13.9999 25.5V8.5Z" fill="black" fill-opacity="0.7"/>
<path d="M10.9998 9C10.9998 8.44772 11.4475 8 11.9998 8C12.5521 8 12.9998 8.44772 12.9998 9V25C12.9998 25.5523 12.5521 26 11.9998 26C11.4475 26 10.9998 25.5523 10.9998 25V9Z" fill="black" fill-opacity="0.7"/>
<path d="M17 8.5C17 8.22386 17.2239 8 17.5 8C17.7761 8 18 8.22386 18 8.5V25.5C18 25.7761 17.7761 26 17.5 26C17.2239 26 17 25.7761 17 25.5V8.5Z" fill="black" fill-opacity="0.7"/>
<path d="M22 8.5C22 8.22386 22.2239 8 22.5 8C22.7761 8 23 8.22386 23 8.5V25.5C23 25.7761 22.7761 26 22.5 26C22.2239 26 22 25.7761 22 25.5V8.5Z" fill="black" fill-opacity="0.7"/>
<path d="M19 9C19 8.44772 19.4477 8 20 8C20.5523 8 21 8.44772 21 9V25C21 25.5523 20.5523 26 20 26C19.4477 26 19 25.5523 19 25V9Z" fill="black" fill-opacity="0.7"/>
<path d="M25 8.5C25 8.22386 25.2239 8 25.5 8C25.7761 8 26 8.22386 26 8.5V25.5C26 25.7761 25.7761 26 25.5 26C25.2239 26 25 25.7761 25 25.5V8.5Z" fill="black" fill-opacity="0.7"/>
<path d="M30 8.5C30 8.22386 30.2239 8 30.5 8C30.7761 8 31 8.22386 31 8.5V25.5C31 25.7761 30.7761 26 30.5 26C30.2239 26 30 25.7761 30 25.5V8.5Z" fill="black" fill-opacity="0.7"/>
<path d="M26.9999 9.11374C26.9999 8.56146 27.4476 8.11374 27.9999 8.11374C28.5521 8.11374 28.9999 8.56146 28.9999 9.11374V25.1137C28.9999 25.666 28.5521 26.1137 27.9999 26.1137C27.4476 26.1137 26.9999 25.666 26.9999 25.1137V9.11374Z" fill="black" fill-opacity="0.7"/>
<path d="M1.5 22C2.32843 22 3 22.6716 3 23.5V30H9.5C10.3284 30 11 30.6716 11 31.5C11 32.3284 10.3284 33 9.5 33H1.5L1.34668 32.9922C0.64069 32.9205 0.0794912 32.3593 0.0078125 31.6533L0 31.5V23.5C0 22.6716 0.671573 22 1.5 22Z" fill="black" fill-opacity="0.7"/>
<path d="M37.5 22C36.6716 22 36 22.6716 36 23.5V30H29.5C28.6716 30 28 30.6716 28 31.5C28 32.3284 28.6716 33 29.5 33H37.5L37.6533 32.9922C38.3593 32.9205 38.9205 32.3593 38.9922 31.6533L39 31.5V23.5C39 22.6716 38.3284 22 37.5 22Z" fill="black" fill-opacity="0.7"/>
<path d="M28 1.5C28 2.32843 28.6716 3 29.5 3H36V9.5C36 10.3284 36.6716 11 37.5 11C38.3284 11 39 10.3284 39 9.5V1.5L38.9922 1.34668C38.9205 0.64069 38.3593 0.0794912 37.6533 0.0078125L37.5 0H29.5C28.6716 0 28 0.671573 28 1.5Z" fill="black" fill-opacity="0.7"/>
<path d="M11 1.5C11 2.32843 10.3284 3 9.5 3H3V9.5C3 10.3284 2.32843 11 1.5 11C0.671573 11 1.53743e-08 10.3284 0 9.5V1.5L0.0078125 1.34668C0.0794912 0.64069 0.64069 0.0794912 1.34668 0.0078125L1.5 0H9.5C10.3284 0 11 0.671573 11 1.5Z" fill="black" fill-opacity="0.7"/>
</svg>
